<svg id="Calque_1" data-name="Calque 1" xmlns="http://www.w3.org/2000/svg" viewBox="0 0 521.99 36.65"><defs><style>.cls-1{fill:#fff;}</style></defs><path class="cls-1" d="M205.51,386.67a10.78,10.78,0,0,1,4.14.69,6.14,6.14,0,0,1,2.6,1.91,6,6,0,0,1,1.17,3,12.8,12.8,0,0,1-.13,3.82l-.76,4.22a12.57,12.57,0,0,1-1.14,3.41,11.26,11.26,0,0,1-2.22,3,10.72,10.72,0,0,1-3.28,2.17,11.19,11.19,0,0,1-4.41.81H160l1.78-10.33H196.6a2.73,2.73,0,0,0,2-.54,2.11,2.11,0,0,0,.61-1.19,1.6,1.6,0,0,0-.2-1.12c-.2-.34-.8-.51-1.78-.51H170.89a10.47,10.47,0,0,1-3.56-.59,7.41,7.41,0,0,1-2.72-1.65,5.88,5.88,0,0,1-1.55-2.55,7.1,7.1,0,0,1-.16-3.31l1-5.9a10.39,10.39,0,0,1,1.38-3.59,10.72,10.72,0,0,1,2.52-2.85,11.58,11.58,0,0,1,3.33-1.86,11,11,0,0,1,3.77-.66h40.56l-1.78,10.33H179.8a3,3,0,0,0-2,.49,1.89,1.89,0,0,0-.61,1.14,1.71,1.71,0,0,0,.2,1.15c.2.35.8.53,1.78.53Z" transform="translate(-159.95 -373.03)"/><path class="cls-1" d="M272.44,373l-2,11.35H252l-4.43,25.3h-14.3l4.42-25.3H218.89l2-11.35Z" transform="translate(-159.95 -373.03)"/><path class="cls-1" d="M344.31,373l-6.41,36.65H323.59L330,373Zm37.87,0-6.42,36.65h-14.3L363.65,397H347.82l-4.17-11.36h22L367.88,373Z" transform="translate(-159.95 -373.03)"/><path class="cls-1" d="M403.35,373l-4.43,25.3h31.51l-2,11.35H382.64L389.05,373Z" transform="translate(-159.95 -373.03)"/><path class="cls-1" d="M461.57,373l-1.88,10.84H429.2l-.66,3.82h21.88L448.59,398H426.71l-2,11.66h-14.3L416.78,373Z" transform="translate(-159.95 -373.03)"/><path class="cls-1" d="M507.2,373a9.73,9.73,0,0,1,4.18.89,9.23,9.23,0,0,1,3.15,2.42,8.79,8.79,0,0,1,1.78,3.59,10.39,10.39,0,0,1,.11,4.35l-2.5,14.2a12.39,12.39,0,0,1-1.65,4.38,15.05,15.05,0,0,1-3,3.56,13.74,13.74,0,0,1-4,2.39,12,12,0,0,1-4.48.87H471a9.92,9.92,0,0,1-4.22-.87,8.47,8.47,0,0,1-3.13-2.39,9.19,9.19,0,0,1-1.78-3.56,10.18,10.18,0,0,1-.13-4.38l2.49-14.2a12.56,12.56,0,0,1,1.66-4.35,14.46,14.46,0,0,1,3.05-3.59,14.84,14.84,0,0,1,4-2.42,11.85,11.85,0,0,1,4.48-.89Zm-5.65,14.61a2.62,2.62,0,0,0-.56-2.29,2.72,2.72,0,0,0-2.19-1h-17a3.67,3.67,0,0,0-2.47,1,3.94,3.94,0,0,0-1.34,2.29L476.66,395a2.64,2.64,0,0,0,.54,2.29,2.74,2.74,0,0,0,2.16,1h17a3.88,3.88,0,0,0,2.49-1,4,4,0,0,0,1.38-2.29Z" transform="translate(-159.95 -373.03)"/><path class="cls-1" d="M566.55,373a9.41,9.41,0,0,1,3.54.64,7.49,7.49,0,0,1,2.7,1.78,6.61,6.61,0,0,1,1.55,2.75,7.75,7.75,0,0,1,.1,3.54l-.92,5.24a8.22,8.22,0,0,1-.73,2.08,9.09,9.09,0,0,1-1.33,2,9,9,0,0,1-1.75,1.52,5.46,5.46,0,0,1-2,.84,4.54,4.54,0,0,1,3.08,2,4.91,4.91,0,0,1,.64,3.71l-1.84,10.54h-14.2l1.27-7.28a2.29,2.29,0,0,0-.48-1.88,2.16,2.16,0,0,0-1.75-.77H541.15l-3.87-10.48h18.89a3.45,3.45,0,0,0,2-.64,2.6,2.6,0,0,0,1.12-1.75l.1-.56a1.78,1.78,0,0,0-.43-1.79,2.5,2.5,0,0,0-1.81-.66H536.67l-4.53,25.81h-14.3L524.25,373Z" transform="translate(-159.95 -373.03)"/><path class="cls-1" d="M630.28,373l-2,11.35h-30.9a3.65,3.65,0,0,0-2.46,1,4,4,0,0,0-1.35,2.29L592.25,395a2.64,2.64,0,0,0,.54,2.29,2.75,2.75,0,0,0,2.16,1h30.9l-2,11.35H586.6a9.49,9.49,0,0,1-4.09-.87,9.27,9.27,0,0,1-3.16-2.36,9.11,9.11,0,0,1-1.86-3.54,10,10,0,0,1-.15-4.38l2.49-14.25a12.61,12.61,0,0,1,1.66-4.38,14.77,14.77,0,0,1,7-6A11.85,11.85,0,0,1,593,373Z" transform="translate(-159.95 -373.03)"/><path class="cls-1" d="M681.94,373l-1.88,10.84H648.55l-.51,2.8h23.77L670.18,396H646.41l-.51,2.85h31.51l-1.88,10.84H629.72L636.13,373Z" transform="translate(-159.95 -373.03)"/><path class="cls-1" d="M305.12,373h-18l-27.49,36.65H292l.38-4.53.94-11.3v-.21h0v0c-.3-2-1.06-4.61-2.28-5.52a2.27,2.27,0,0,0-.25-.18h0a1,1,0,0,0-.27-.11h0a1.12,1.12,0,0,0-.31-.05h0l-2.43,0v.65l-3.8-.05.08-6.28,3.8.05v.58l2.43,0a.78.78,0,0,1,0-.14v0a.88.88,0,0,1,.05-.15v0a.65.65,0,0,1,.09-.16v0a.91.91,0,0,1,.13-.16h0a.74.74,0,0,1,.56-.22l6.56.07c3.86,0,4.77-.71,8.51,8,.71,1.65.42,2.71,0,2.93-.78.36-1.73-.34-2.7-1.72-1.88-2.69-1.9-4.23-3.74-3.61-.62.2-.8.61-1.08,2.35-.07.45-.2,1.33-.32,2.14s-.26,1.8-.26,1.8h0l.93,16h20.76Z" transform="translate(-159.95 -373.03)"/></svg>